<svg width="80" height="30" viewBox="0 0 80 30" fill="none" xmlns="http://www.w3.org/2000/svg">
  <g clip-path="url(#clip0_3774_93)">
    <path
      d="M0.0926094 2.96669C0.0926094 2.36453 0.574329 1.88281 1.17648 1.88281H4.51841C5.12057 1.88281 6.05389 2.00324 6.62593 2.12367C6.62593 2.12367 7.49905 2.33443 8.13131 3.26777L16.1098 15.6721C16.441 16.1538 16.9227 16.9968 17.2238 17.5086C17.2238 17.5086 18.8496 20.2483 20.2948 23.7709C19.5421 20.0075 19.3614 18.2312 19.3614 15.9731V2.96669C19.3614 2.36453 19.8432 1.88281 20.4454 1.88281H24.3594C24.9614 1.88281 25.4432 2.36453 25.4432 2.96669V28.9193C25.4432 29.5215 24.9614 30.0033 24.3594 30.0033H20.9872C20.3852 30.0033 19.4518 29.8829 18.8797 29.7623C18.8797 29.7623 18.0066 29.5517 17.3743 28.6183L9.39583 16.214C9.06465 15.7323 8.58293 14.8893 8.28185 14.3774C8.28185 14.3774 6.65605 11.6376 5.21089 8.11507C5.90335 11.8785 6.14421 13.6548 6.14421 15.8527V28.8893C6.14421 29.4915 5.66249 29.9731 5.06035 29.9731H1.14637C0.544223 29.9731 0.0625 29.4915 0.0625 28.8893V2.96669H0.0926094Z"
      fill="white"
    ></path>
    <path
      d="M28.9336 16.9042C28.9336 16.302 29.4154 15.8203 30.0174 15.8203H40.1636C40.7658 15.8203 41.2476 16.302 41.2476 16.9042V19.644C41.2476 20.2462 40.7658 20.7278 40.1636 20.7278H30.0174C29.4154 20.7278 28.9336 20.2462 28.9336 19.644V16.9042Z"
      fill="white"
    ></path>
    <path
      d="M44.5 11.7844C44.5 11.1822 44.9818 10.7005 45.5838 10.7005H49.4978C50.1 10.7005 50.5818 11.1822 50.5818 11.7844V28.9156C50.5818 29.5178 50.1 29.9994 49.4978 29.9994H45.5838C44.9818 29.9994 44.5 29.5178 44.5 28.9156V11.7844ZM50.5216 4.40804C50.5216 6.09406 49.1666 7.4188 47.5108 7.4188C45.8548 7.4188 44.5 6.06396 44.5 4.40804C44.5 2.72202 45.8548 1.36719 47.5108 1.36719C49.1666 1.36719 50.5216 2.75214 50.5216 4.40804Z"
      fill="white"
    ></path>
    <path
      d="M52.2344 29.972C54.2516 26.4194 57.1418 21.7226 59.7312 17.8086L60.3032 16.9354C60.6344 16.4537 60.9956 15.9118 61.086 15.7311C61.2064 15.5505 61.2064 15.2795 61.086 15.0989C60.9656 14.9182 60.6042 14.3763 60.273 13.8946C60.273 13.8946 58.8278 11.7871 58.0752 10.6129C56.7806 8.65587 55.0946 5.94619 54.2214 4.44081L53.6794 3.50747C53.3784 2.99565 53.0472 2.42361 52.9268 2.21285C52.8064 2.03221 53.1978 1.85156 53.7698 1.85156H59.3398C59.9418 1.85156 60.5138 2.03221 60.6042 2.21285C60.7246 2.42361 61.0258 2.99565 61.3268 3.53759C61.3268 3.53759 64.1268 7.87307 66.445 11.215C67.559 12.8107 70.6 16.7849 70.9312 17.2666C70.9312 17.2666 73.972 21.4818 75.5376 23.9806C76.5612 25.6366 77.6752 27.1118 78.4278 28.4064C78.6988 28.8882 78.9096 29.1892 79.3312 29.942H72.587C71.9848 29.942 71.2924 29.5204 71.0214 28.9784C71.0214 28.9784 70.0278 27.0818 68.8536 25.0042C67.3484 22.3548 66.686 21.1506 65.4816 19.2236L65.2708 19.5548C64.9698 20.0666 64.488 20.8796 64.187 21.3914C64.187 21.3914 61.2666 26.4494 59.8516 29.129C59.6408 29.5506 58.9784 29.9118 58.3762 29.9118H52.2344V29.972Z"
      fill="white"
    ></path>
    <path
      d="M67.4102 9.59035C67.4102 9.59035 69.6984 5.76669 71.3844 2.63551C71.595 2.21399 72.2574 1.88281 72.8596 1.88281H77.7972C78.3994 1.88281 78.7606 2.03335 78.6402 2.24411C78.5198 2.42475 78.1886 2.99679 77.8574 3.50863L72.2274 12.3903L71.023 14.3473L67.4102 9.59035Z"
      fill="white"
    ></path>
  </g>
  <defs>
    <clipPath id="clip0_3774_93">
      <rect width="80" height="30" fill="white"></rect>
    </clipPath>
  </defs>
</svg>
