<svg width="232" height="42" viewBox="0 0 232 42" fill="none" xmlns="http://www.w3.org/2000/svg">
  <g clip-path="url(#clip0_3141_9170)">
    <path
      d="M48.3278 31.2767C51.741 31.2767 54.7032 29.4904 54.7373 26.0214C54.7727 23.3938 53.0661 21.8871 50.9047 21.0116L48.5008 20.0666C47.5597 19.7162 46.8624 19.2607 46.8624 18.4194C46.8624 17.6844 47.3867 17.0544 48.5008 17.0544C49.5114 17.0544 50.4866 17.544 51.602 18.4903C51.9166 18.7357 52.1591 18.7699 52.4029 18.4903L53.9364 16.6331C54.1108 16.4231 54.1802 16.1422 53.9718 15.8981C52.5431 14.1814 50.4866 13.2705 48.257 13.2705C45.0864 13.2705 42.2984 15.1618 42.2984 18.4549C42.2984 20.8371 43.832 22.3084 46.0275 23.1838L48.1876 24.0606C49.4419 24.5856 49.9649 24.9714 49.9649 25.8114C49.9649 26.7919 49.1981 27.2473 48.0486 27.2473C46.7248 27.2473 45.5399 26.6527 44.1112 25.5673C43.832 25.3573 43.5187 25.2864 43.2395 25.7064L42.0205 27.4232C41.7767 27.8091 41.7414 28.1936 41.9511 28.4391C43.309 30.0508 45.4704 31.2767 48.3278 31.2767ZM224.241 31.2767C226.647 31.2767 228.841 30.5758 230.305 29.1045C230.618 28.8249 230.654 28.5795 230.479 28.3341L229.189 26.5477C229.015 26.3023 228.841 26.2669 228.597 26.4073C227.204 27.2132 225.949 27.4573 224.626 27.4573C221.873 27.4573 220.096 26.2669 219.573 24.0947H229.956C231.454 24.0947 231.839 23.1497 231.839 21.4671C231.839 17.1227 228.841 13.2705 223.65 13.2705C218.389 13.2705 214.87 17.1581 214.87 22.2034C214.87 27.3877 218.633 31.2767 224.241 31.2767ZM219.503 20.6979C219.921 18.4194 221.56 17.2631 223.684 17.2631C225.741 17.2631 227.273 18.4194 227.552 20.6966H219.503V20.6979ZM206.775 31.2767C210.189 31.2767 213.15 29.4904 213.185 26.0214C213.22 23.3938 211.513 21.8871 209.353 21.0116L206.948 20.0666C206.008 19.7162 205.311 19.2607 205.311 18.4194C205.311 17.6844 205.834 17.0544 206.948 17.0544C207.958 17.0544 208.935 17.544 210.049 18.4903C210.363 18.7357 210.607 18.7699 210.851 18.4903L212.383 16.6331C212.558 16.4231 212.627 16.1422 212.419 15.8981C210.99 14.1814 208.935 13.2705 206.704 13.2705C203.533 13.2705 200.747 15.1618 200.747 18.4549C200.747 20.8371 202.279 22.3084 204.474 23.1838L206.634 24.0606C207.889 24.5856 208.412 24.9714 208.412 25.8114C208.412 26.7919 207.645 27.2473 206.495 27.2473C205.172 27.2473 203.987 26.6527 202.558 25.5673C202.279 25.3573 201.966 25.2864 201.686 25.7064L200.467 27.4232C200.224 27.8091 200.188 28.1936 200.398 28.4391C201.757 30.0508 203.917 31.2767 206.775 31.2767ZM187.574 31.2767C190.118 31.2767 191.755 30.0154 192.73 28.2632L192.87 30.2962C192.904 30.7162 193.079 30.8567 193.392 30.8567H196.981C197.295 30.8567 197.539 30.6467 197.539 30.3317V14.2142C197.539 13.8992 197.295 13.6892 196.981 13.6892H193.253C192.94 13.6892 192.73 13.8992 192.73 14.2142V23.1129C192.73 25.5292 191.406 26.8273 189.385 26.8273C187.33 26.8273 186.214 25.5306 186.214 23.1129V14.2142C186.214 13.8992 186.006 13.6892 185.693 13.6892H181.93C181.615 13.6892 181.407 13.8992 181.407 14.2142V24.1984C181.407 28.6832 183.985 31.2767 187.574 31.2767ZM170.111 31.2767C175.233 31.2767 179.032 27.3523 179.032 22.2729C179.032 17.1936 175.233 13.2692 170.111 13.2692C164.954 13.2692 161.157 17.1936 161.157 22.2729C161.157 27.3523 164.954 31.2767 170.111 31.2767ZM165.791 22.2729C165.791 19.4707 167.673 17.7186 170.111 17.7186C172.516 17.7186 174.397 19.4707 174.397 22.2729C174.397 25.0764 172.516 26.8273 170.111 26.8273C167.673 26.8273 165.791 25.0764 165.791 22.2729ZM143.001 30.8567H146.764C147.079 30.8567 147.287 30.6467 147.287 30.3317V21.4329C147.287 19.0153 148.611 17.7186 150.632 17.7186C152.687 17.7186 153.803 19.0153 153.803 21.4329V30.3317C153.803 30.6467 154.012 30.8567 154.326 30.8567H158.053C158.367 30.8567 158.612 30.6467 158.612 30.3317V20.3462C158.612 15.8627 155.998 13.2705 152.443 13.2705C149.901 13.2705 148.262 14.5305 147.287 16.2827V6.33393C147.287 6.01893 147.079 5.80893 146.764 5.80893H143.001C142.688 5.80893 142.479 6.01893 142.479 6.33393V30.3304C142.479 30.6454 142.688 30.8567 143.001 30.8567ZM134.275 30.8567H138.072C138.387 30.8567 138.595 30.6467 138.595 30.3317V6.33262C138.595 6.01762 138.387 5.80762 138.072 5.80762H134.275C133.961 5.80762 133.752 6.01762 133.752 6.33262V30.3291C133.752 30.6441 133.961 30.8541 134.275 30.8541V30.8567ZM121.847 31.2767C126.968 31.2767 130.765 27.3523 130.765 22.2729C130.765 17.1936 126.968 13.2692 121.846 13.2692C116.689 13.2692 112.891 17.1936 112.891 22.2729C112.891 27.3523 116.69 31.2767 121.847 31.2767ZM117.525 22.2729C117.525 19.4707 119.406 17.7186 121.846 17.7186C124.249 17.7186 126.132 19.4707 126.132 22.2729C126.132 25.0764 124.249 26.8273 121.846 26.8273C119.408 26.8273 117.525 25.0764 117.525 22.2729ZM102.297 31.2767C107.418 31.2767 111.217 27.3523 111.217 22.2729C111.217 17.1936 107.418 13.2692 102.297 13.2692C97.1395 13.2692 93.3424 17.1936 93.3424 22.2729C93.3424 27.3523 97.1395 31.2767 102.297 31.2767ZM97.9758 22.2729C97.9758 19.4707 99.858 17.7186 102.297 17.7186C104.701 17.7186 106.583 19.4707 106.583 22.2729C106.583 25.0764 104.701 26.8273 102.297 26.8273C99.858 26.8273 97.9758 25.0764 97.9758 22.2729ZM75.1874 30.8567H78.9492C79.2638 30.8567 79.4735 30.6467 79.4735 30.3317V21.4329C79.4735 19.0153 80.7973 17.7186 82.8172 17.7186C84.8737 17.7186 85.9891 19.0153 85.9891 21.4329V30.3317C85.9891 30.6467 86.1975 30.8567 86.5108 30.8567H90.2385C90.5531 30.8567 90.7969 30.6467 90.7969 30.3317V20.3462C90.7969 15.8627 88.1833 13.2705 84.6299 13.2705C82.0858 13.2705 80.4487 14.5305 79.4722 16.2827V6.33393C79.4722 6.01893 79.2624 5.80893 78.9505 5.80893H75.1874C74.8728 5.80893 74.6631 6.01893 74.6631 6.33393V30.3304C74.6631 30.6454 74.8728 30.8567 75.1874 30.8567ZM65.446 31.2767C68.1985 31.2767 70.5343 30.0849 71.997 28.1936C72.2068 27.9482 72.136 27.6686 71.9276 27.4586L69.837 25.3914C69.779 25.3293 69.7088 25.2798 69.6309 25.2459C69.553 25.2121 69.469 25.1946 69.3841 25.1946C69.2992 25.1946 69.2152 25.2121 69.1373 25.2459C69.0594 25.2798 68.9892 25.3293 68.9312 25.3914C67.9901 26.3364 66.9796 26.8273 65.6544 26.8273C62.8337 26.8273 61.0563 24.726 61.0563 22.2034C61.0563 19.6807 62.8337 17.7186 65.5522 17.7186C66.9442 17.7186 67.9547 18.2094 68.8958 19.1557C68.9537 19.218 69.0238 19.2677 69.1017 19.3017C69.1797 19.3356 69.2637 19.3532 69.3487 19.3532C69.4337 19.3532 69.5177 19.3356 69.5957 19.3017C69.6736 19.2677 69.7437 19.218 69.8016 19.1557L71.8922 17.0886C72.1019 16.8786 72.1714 16.5977 71.9617 16.3536C70.4989 14.4609 68.1645 13.2692 65.3424 13.2692C60.2201 13.2692 56.4216 17.124 56.4216 22.2034C56.4216 27.3523 60.2542 31.2767 65.446 31.2767Z"
      fill="white"
    />
    <path
      d="M12.4428 5.25012C12.4435 4.94195 12.3645 4.63886 12.2134 4.37039C12.0623 4.10192 11.8443 3.87723 11.5807 3.71821C11.3171 3.5592 11.0168 3.47128 10.7092 3.46304C10.4015 3.4548 10.097 3.52651 9.82527 3.67118C6.86829 5.1622 4.3835 7.44705 2.64847 10.2705C0.913428 13.094 -0.00353321 16.3449 1.02309e-05 19.6601C1.02309e-05 28.9263 7.01506 36.5467 15.9988 37.4444V38.8724H15.5532C15.2023 38.8731 14.8549 38.943 14.531 39.0782C14.2071 39.2133 13.913 39.411 13.6654 39.6601C13.4178 39.9091 13.2216 40.2045 13.0881 40.5294C12.9546 40.8544 12.8863 41.2025 12.8871 41.5539C12.8871 41.8006 13.0864 42.0001 13.3328 42.0001H22.2196C22.3378 42.0001 22.4511 41.9531 22.5347 41.8694C22.6183 41.7857 22.6652 41.6722 22.6652 41.5539C22.6652 40.0734 21.4711 38.8724 19.9979 38.8724H19.5535V34.8588C19.5535 34.3207 19.0856 33.9072 18.5508 33.9361C18.2952 33.9506 18.0357 33.9571 17.7762 33.9571C9.92227 33.9571 3.55472 27.5561 3.55472 19.6601C3.55472 14.0819 6.73194 9.25062 11.3667 6.89337C11.9998 6.62037 12.4428 5.98774 12.4428 5.25012Z"
      fill="white"
    />
    <path
      d="M15.999 3.57394C15.9973 2.62804 16.3708 1.72017 17.0374 1.04996C17.704 0.379756 18.6091 0.00208648 19.5537 0L23.5528 0C23.7887 0.000694858 24.0148 0.0950325 24.1813 0.262333C24.3479 0.429634 24.4415 0.656248 24.4415 0.8925V3.12769C24.4432 4.07359 24.0697 4.98146 23.4031 5.65166C22.7365 6.32187 21.8314 6.69954 20.8868 6.70162H16.8877C16.6518 6.70093 16.4257 6.60659 16.2592 6.43929C16.0926 6.27199 15.999 6.04538 15.999 5.80912V3.57394Z"
      fill="white"
    />
    <path
      d="M17.7758 29.937C23.4208 29.937 27.9969 25.3359 27.9969 19.6602C27.9969 13.9844 23.4208 9.3833 17.7758 9.3833C12.1308 9.3833 7.55469 13.9844 7.55469 19.6602C7.55469 25.3359 12.1308 29.937 17.7758 29.937Z"
      fill="white"
    />
  </g>
  <defs>
    <clipPath id="clip0_3141_9170">
      <rect width="232" height="42" fill="white" />
    </clipPath>
  </defs>
</svg>
